<?xml version="1.0" encoding="utf-8"?>
<!-- Generator: Adobe Illustrator 25.0.0, SVG Export Plug-In . SVG Version: 6.00 Build 0)  -->
<svg version="1.1" id="Layer_1" xmlns="http://www.w3.org/2000/svg" xmlns:xlink="http://www.w3.org/1999/xlink" x="0px" y="0px"
	 viewBox="0 0 308.8 118.3" style="enable-background:new 0 0 308.8 118.3;" xml:space="preserve">
<style type="text/css">
	.st0{fill:#F5A800;}
	.st1{fill:#4D4D4F;}
	.st2{fill:#292828;}
	.st3{fill:#FFC629;}
	.st4{fill:#FFFFFF;}
	.st5{fill:none;stroke:#D1D1D1;stroke-miterlimit:10;}
	.st6{fill:none;stroke:#D1D1D1;stroke-width:3;stroke-linecap:round;stroke-linejoin:round;stroke-miterlimit:10;}
	.st7{fill:none;stroke:#292828;stroke-width:2;stroke-miterlimit:10;}
	.st8{opacity:0.5;}
	.st9{fill:#F0BC5E;}
</style>
<g>
	<defs>
		<rect id="SVGID_1_" x="-224.5" y="525.3" width="1961.2" height="668.7"/>
	</defs>
	<clipPath id="SVGID_2_">
		<use xlink:href="#SVGID_1_"  style="overflow:visible;"/>
	</clipPath>
	<g style="clip-path:url(#SVGID_2_);">
		
			<image style="overflow:visible;" width="3840" height="2160" xlink:href="637450E2F7EB6749.jpg"  transform="matrix(1.562195e-08 1.31 -1.31 1.562195e-08 2575.0715 -1384.1046)">
		</image>
	</g>
</g>
<g>
	<g>
		<path class="st0" d="M107.6,63.9c-0.5,0.1-0.9,0.2-1.3,0.4c-0.4,0.2-0.8,0.5-1.1,0.8c-0.3,0.4-0.5,0.9-0.6,1.5
			c-0.1,0.8,0.1,1.5,0.6,2c0.5,0.5,1.3,0.7,2.3,0.7c0.5,0,1.1-0.1,1.6-0.2c0.6-0.1,1.1-0.3,1.7-0.5c0.6-0.2,1.1-0.4,1.6-0.6
			c0.5-0.2,0.9-0.5,1.3-0.7l0.5-3.4h-5.3C108.5,63.8,108,63.8,107.6,63.9z"/>
		<path class="st0" d="M114.4,55.9c-0.7-0.6-1.8-0.9-3.3-0.9c-0.7,0-1.7,0.1-2.8,0.3c-1.1,0.2-2.3,0.8-3.6,1.7l-1.6-3.5
			c1.7-1.1,3.3-1.9,4.9-2.2c1.4-0.3,2.8-0.5,4-0.5L75.1,14.1c-3.6-3.6-9.5-3.6-13.1,0L21.2,54.9c-3.6,3.6-3.6,9.5,0,13.1L62,108.9
			c3.6,3.6,9.5,3.6,13.1,0l37.4-37.4c-1.5,0.7-2.8,1.3-3.8,1.5c-1.1,0.3-2.2,0.4-3.1,0.4c-2.2,0-3.8-0.6-4.9-1.8
			c-1.1-1.2-1.4-2.8-1.1-4.9c0.2-1.2,0.6-2.3,1.3-3.1c0.7-0.8,1.5-1.5,2.3-2c0.9-0.5,1.8-0.9,2.8-1.1c1-0.2,1.9-0.4,2.7-0.4h6.1
			l0.2-1.3C115.2,57.4,115,56.5,114.4,55.9z M71.2,66.7c0.2,0.6,0.4,1.1,0.8,1.4c0.4,0.4,0.8,0.6,1.3,0.8c0.5,0.2,1,0.2,1.6,0.2
			c0.6,0,1.4-0.1,2.3-0.4c0.9-0.3,1.8-0.8,2.7-1.5l2.4,3.3c-1.4,1.2-2.8,2-4.2,2.4c-1.4,0.4-2.8,0.6-4.1,0.6c-1.3,0-2.4-0.2-3.5-0.5
			c-1.1-0.4-1.9-0.9-2.6-1.6c-0.7-0.7-1.2-1.5-1.5-2.5c-0.3-1-0.4-2.1-0.2-3.3l1-6.6c0.2-1.3,0.6-2.5,1.3-3.5c0.7-1,1.5-1.9,2.4-2.6
			c0.9-0.7,2-1.2,3.1-1.6c1.1-0.4,2.3-0.5,3.4-0.5c0.7,0,1.3,0,2,0.1c0.7,0.1,1.3,0.2,2,0.4c0.6,0.2,1.3,0.5,1.8,0.9
			c0.6,0.4,1.1,0.9,1.6,1.5l-3.3,3.5c-0.9-0.9-1.7-1.5-2.4-1.7c-0.8-0.2-1.4-0.3-2-0.3c-0.5,0-1,0.1-1.6,0.2
			c-0.6,0.2-1.1,0.4-1.6,0.8c-0.5,0.4-0.9,0.8-1.3,1.4c-0.4,0.6-0.6,1.3-0.8,2.1l-0.8,4.8C71,65.4,71,66.1,71.2,66.7z M92.1,73.3
			h-4.8l3.5-22.2h4.7L92.1,73.3z M97,44.7c-0.1,0.8-0.5,1.4-1.1,2c-0.6,0.5-1.3,0.8-2.1,0.8c-0.7,0-1.3-0.3-1.8-0.8
			c-0.4-0.5-0.6-1.2-0.5-2c0.1-0.8,0.5-1.4,1.1-1.9c0.6-0.5,1.3-0.8,2-0.8c0.8,0,1.4,0.3,1.8,0.8C96.9,43.3,97.1,44,97,44.7z"/>
	</g>
	<path class="st1" d="M129.5,67.4c-0.2,1.2,0,1.9,0.4,2.2c0.5,0.3,1.3,0.4,2.5,0.3l-0.5,3.5c-0.4,0.1-0.8,0.1-1.2,0.1
		c-0.4,0-0.7,0-1.1,0c-1,0-1.9-0.1-2.5-0.4c-0.6-0.3-1.1-0.6-1.4-1.1c-0.3-0.5-0.5-1.1-0.5-1.8c0-0.7,0-1.5,0.2-2.4l4.2-26.7h3.9
		L129.5,67.4z"/>
	<path class="st1" d="M151.2,71.1c-1.9,1-3.5,1.6-4.6,1.9c-1.2,0.3-2.2,0.4-3.1,0.4c-2.2,0-3.8-0.6-4.9-1.8
		c-1.1-1.2-1.5-2.8-1.2-4.9c0.2-1.2,0.6-2.3,1.3-3.1c0.7-0.8,1.5-1.5,2.4-2c0.9-0.5,1.8-0.9,2.8-1.1c1-0.2,1.8-0.3,2.6-0.3h6.5
		l0.3-1.7c0.3-1.6,0-2.6-0.8-3.2c-0.8-0.6-2-0.9-3.6-0.9c-0.8,0-1.7,0.1-2.9,0.3c-1.2,0.2-2.4,0.8-3.7,1.7l-1.4-2.9
		c1.6-1.1,3.2-1.8,4.7-2.1c1.5-0.3,2.9-0.5,4.2-0.5c2.9,0,5,0.6,6.2,1.9c1.2,1.3,1.6,3.2,1.2,5.9l-2.3,14.7h-3.4l-0.1-2.1
		L151.2,71.1z M152.6,63.4h-5.9c-0.5,0-1,0-1.6,0.1c-0.6,0.1-1.1,0.2-1.6,0.4c-0.5,0.2-1,0.6-1.4,1c-0.4,0.5-0.6,1.1-0.8,1.8
		c-0.2,1.1,0.1,1.9,0.7,2.4c0.6,0.5,1.5,0.8,2.7,0.8c0.6,0,1.2-0.1,1.8-0.2c0.6-0.2,1.3-0.4,1.9-0.6c0.6-0.2,1.2-0.5,1.8-0.8
		c0.6-0.3,1.1-0.5,1.6-0.8L152.6,63.4z"/>
	<path class="st1" d="M178.3,66.9c-0.2,1-0.5,2-1.1,2.8c-0.6,0.8-1.3,1.5-2.1,2.1c-0.9,0.6-1.9,1-3,1.3c-1.1,0.3-2.3,0.4-3.6,0.4
		c-1.6,0-3-0.2-4.4-0.6c-1.4-0.4-2.8-1.2-4.1-2.3l2.6-2.8c1,0.9,2,1.6,3.1,1.9c1.1,0.3,2.4,0.5,3.7,0.5c0.5,0,1.1-0.1,1.7-0.2
		c0.6-0.1,1.1-0.3,1.6-0.6c0.5-0.3,0.9-0.6,1.2-1.1c0.3-0.4,0.6-1,0.7-1.5c0.1-1-0.1-1.6-0.7-2.1c-0.6-0.4-1.4-0.7-2.5-0.9
		c-1.1-0.2-2.2-0.4-3.3-0.6c-1.1-0.2-2-0.6-2.9-1c-0.8-0.4-1.5-1-1.9-1.8c-0.5-0.7-0.6-1.7-0.4-3c0.2-1,0.5-1.9,1.1-2.8
		c0.6-0.8,1.2-1.5,2.1-2.1c0.8-0.6,1.8-1,2.8-1.3c1-0.3,2.1-0.5,3.2-0.5c1.7,0,3.1,0.2,4.4,0.5c1.2,0.3,2.4,1,3.4,1.8l-2.4,2.9
		c-0.9-0.7-1.9-1.1-2.8-1.4c-0.9-0.3-2-0.4-3.1-0.4c-1.3,0-2.4,0.3-3.3,0.9c-0.9,0.6-1.4,1.4-1.6,2.3c-0.1,0.8,0.1,1.4,0.7,1.7
		c0.6,0.4,1.4,0.7,2.3,0.9c0.9,0.2,2,0.4,3.1,0.6c1.1,0.2,2.1,0.5,3,1c0.9,0.4,1.6,1.1,2.2,1.9C178.4,64.4,178.5,65.5,178.3,66.9z"
		/>
	<path class="st1" d="M196,73.3l2.2-13.7c0.2-1.3,0-2.1-0.5-2.6c-0.5-0.5-1.2-0.7-1.9-0.7c-0.7,0-1.5,0.2-2.4,0.5
		c-0.9,0.3-1.9,0.8-3.2,1.5l-2.4,15.1h-5.7l5.1-32.1h5.7l-1.9,11.9c1.8-1,3.2-1.6,4.4-1.9c1.1-0.3,2.1-0.4,2.9-0.4
		c2.5,0,4.2,0.7,5,2.2c0.8,1.5,1.1,3.4,0.7,5.9l-2.3,14.4H196z"/>
	<path class="st1" d="M214.2,63.9l-0.1,0.7c-0.1,0.7-0.1,1.2,0.1,1.7c0.1,0.5,0.4,0.9,0.7,1.2c0.3,0.3,0.7,0.5,1.2,0.7
		c0.5,0.2,1,0.2,1.5,0.2c0.6,0,1.4-0.1,2.4-0.3c1-0.2,2-0.7,3.2-1.5l2.5,3.9c-0.8,0.7-1.6,1.2-2.3,1.6c-0.8,0.4-1.5,0.7-2.2,0.9
		c-0.7,0.2-1.4,0.4-2.1,0.5c-0.7,0.1-1.4,0.1-2.2,0.1c-1.3,0-2.5-0.2-3.7-0.5c-1.1-0.3-2.1-0.8-2.9-1.5c-0.8-0.7-1.4-1.5-1.8-2.5
		c-0.4-1-0.5-2.2-0.2-3.6l0.9-5.7c0.2-1.4,0.7-2.6,1.3-3.7c0.7-1.1,1.5-2,2.5-2.8c1-0.7,2.1-1.3,3.3-1.7c1.2-0.4,2.5-0.6,3.8-0.6
		c1.4,0,2.6,0.2,3.7,0.6c1.1,0.4,2,1,2.7,1.7c0.7,0.7,1.2,1.6,1.5,2.7c0.3,1.1,0.3,2.3,0.1,3.7l-0.7,4.3H214.2z M222.5,59.7
		c0.2-1.2,0-2.1-0.7-2.7c-0.7-0.6-1.5-0.9-2.5-0.9c-1.1,0-2,0.3-2.8,1c-0.9,0.6-1.4,1.6-1.6,2.8l0,0.3h7.6L222.5,59.7z"/>
	<path class="st1" d="M248.4,56.7c-2,0.2-3.7,0.5-5,0.9c-1.3,0.4-2.6,1-3.7,1.6l-2.2,14.1h-5.7l3.5-22.2h5.2l-0.1,3.3h0
		c0.4-0.4,1-0.8,1.7-1.2c0.7-0.4,1.5-0.8,2.3-1.1c0.8-0.3,1.6-0.6,2.5-0.9c0.8-0.2,1.7-0.3,2.4-0.3L248.4,56.7z"/>
	<path class="st1" d="M263.4,71.4c-1.5,0.8-2.8,1.3-3.9,1.6c-1.1,0.3-2.1,0.4-3.1,0.4c-2.3,0-3.9-0.6-5-1.8c-1.1-1.2-1.4-2.9-1.1-5
		c0.2-1.2,0.6-2.3,1.3-3.1c0.6-0.9,1.4-1.5,2.3-2.1c0.9-0.5,1.8-0.9,2.8-1.2c1-0.2,1.9-0.4,2.8-0.4h5.7l0.2-0.9c0.2-1,0-1.8-0.5-2.4
		c-0.5-0.5-1.5-0.8-3.1-0.8c-0.7,0-1.6,0.1-2.7,0.3c-1.1,0.2-2.2,0.7-3.5,1.6l-1.9-4.2c1.7-1.2,3.4-2,5.1-2.3
		c1.6-0.4,3.1-0.5,4.4-0.5c3.2,0,5.4,0.7,6.6,2.1c1.3,1.4,1.6,3.6,1.2,6.5l-2.2,13.8h-5.2l-0.1-1.8L263.4,71.4z M264.6,64.2h-4.7
		c-0.4,0-0.7,0-1.1,0.1c-0.3,0-0.7,0.1-1,0.3c-0.3,0.2-0.6,0.4-0.8,0.7c-0.2,0.3-0.4,0.7-0.4,1.1c-0.1,0.6,0,1.1,0.4,1.5
		c0.4,0.4,1,0.6,1.9,0.6c1,0,1.9-0.2,2.9-0.6c1-0.4,1.8-0.7,2.4-1.1L264.6,64.2z"/>
	<path class="st1" d="M282.9,73.5c-0.8,0-1.6,0-2.4-0.1c-0.8-0.1-1.6-0.2-2.4-0.4c-0.8-0.2-1.6-0.5-2.3-1c-0.8-0.4-1.5-1-2.2-1.7
		l3.7-4.1c1,0.9,2,1.6,3,1.9c1,0.3,2.1,0.5,3.3,0.5c1,0,1.9-0.2,2.6-0.6c0.7-0.4,1.1-0.9,1.2-1.5c0.1-0.5,0-1-0.4-1.3
		c-0.4-0.3-1-0.6-2-0.8c-1-0.2-2-0.4-3.1-0.6c-1.1-0.2-2-0.6-2.8-1c-0.8-0.4-1.5-1.1-1.9-1.8c-0.4-0.8-0.6-1.8-0.4-3.1
		c0.2-1.2,0.6-2.2,1.2-3.1c0.6-0.9,1.4-1.6,2.2-2.2c0.9-0.6,1.8-1,2.9-1.3c1-0.3,2.1-0.4,3.2-0.4c1.8,0,3.3,0.2,4.7,0.5
		c1.4,0.3,2.7,1,3.9,2.1l-3.4,4.3c-1-0.8-2-1.3-3.1-1.5c-1-0.2-2-0.3-2.9-0.3c-1,0-1.7,0.2-2.3,0.6c-0.5,0.4-0.8,0.8-0.9,1.3
		c-0.1,0.6,0.2,1,0.7,1.2c0.6,0.2,1.3,0.4,2.2,0.6c0.9,0.2,1.8,0.4,2.8,0.6c1,0.2,1.9,0.5,2.8,1c0.8,0.5,1.5,1.1,2,1.9
		c0.5,0.8,0.6,1.9,0.4,3.3c-0.2,1.2-0.6,2.2-1.2,3c-0.6,0.9-1.4,1.6-2.4,2.2c-1,0.6-2,1-3.2,1.3C285.4,73.4,284.2,73.5,282.9,73.5z"
		/>
	<path class="st1" d="M135.1,97.3c-0.3,1.6-1,3-2.1,3.9c-1.1,1-2.6,1.5-4.6,1.5c-0.7,0-1.4-0.1-2.1-0.3c-0.7-0.2-1.2-0.5-1.7-1
		c-0.5-0.4-0.9-0.9-1.2-1.6c-0.3-0.6-0.4-1.3-0.4-2.1c0-0.4,0-0.9,0.1-1.3l1-5.1c0.3-1.7,1-3,2.1-3.9c1.1-1,2.6-1.4,4.5-1.4
		c0.8,0,1.6,0.1,2.2,0.4c0.7,0.2,1.3,0.6,1.7,1c0.5,0.4,0.9,1,1.1,1.6c0.3,0.6,0.4,1.2,0.4,1.9c0,0.4,0,0.7-0.1,1L135.1,97.3z
		 M133.9,92c0-0.2,0.1-0.3,0.1-0.5c0-0.2,0-0.3,0-0.4c0-0.5-0.1-1-0.3-1.4c-0.2-0.4-0.4-0.7-0.8-1c-0.3-0.3-0.7-0.5-1.1-0.6
		c-0.4-0.1-0.8-0.2-1.3-0.2c-1.1,0-2.1,0.3-2.8,0.9c-0.8,0.6-1.3,1.6-1.5,2.9l-0.9,4.9c0,0.2-0.1,0.4-0.1,0.5c0,0.2,0,0.3,0,0.5
		c0,0.5,0.1,1,0.3,1.4c0.2,0.4,0.4,0.7,0.7,0.9c0.3,0.2,0.6,0.4,1,0.6c0.4,0.1,0.8,0.2,1.2,0.2c1.4,0,2.4-0.4,3.2-1.1
		c0.7-0.7,1.2-1.7,1.5-3.1L133.9,92z"/>
	<path class="st1" d="M147,98.1c-0.3,1.6-0.9,2.8-1.8,3.5c-0.9,0.7-2.1,1.1-3.6,1.1c-0.3,0-0.6,0-1-0.1c-0.4,0-0.8-0.1-1.3-0.2
		c-0.5-0.1-0.9-0.3-1.4-0.4c-0.5-0.2-0.9-0.4-1.3-0.6l3.1-15.9h2.1l-1.2,6.5c1-0.5,1.8-0.9,2.4-1.1c0.6-0.2,1.2-0.3,1.6-0.3
		c1.1,0,1.9,0.3,2.5,0.8c0.5,0.5,0.8,1.3,0.8,2.2c0,0.2,0,0.4,0,0.6c0,0.2,0,0.4-0.1,0.6L147,98.1z M145.6,95c0-0.3,0.1-0.5,0.1-0.8
		c0-0.6-0.2-1.1-0.5-1.3c-0.3-0.3-0.7-0.4-1.2-0.4c-0.5,0-1.1,0.1-1.8,0.4c-0.7,0.3-1.4,0.6-2.1,1l-1.2,6.1c0.5,0.3,1,0.5,1.5,0.6
		c0.5,0.1,1,0.2,1.4,0.2c0.9,0,1.6-0.2,2.1-0.7c0.5-0.5,0.9-1.2,1-2.1L145.6,95z"/>
	<path class="st1" d="M156.8,92.8c-1.1,0.2-2,0.4-2.7,0.6c-0.7,0.2-1.3,0.4-1.7,0.7l-1.6,8.5h-2.1l2.3-11.9h1.7l0,1.7h0
		c0.5-0.4,1.2-0.8,1.9-1.2c0.8-0.4,1.6-0.6,2.4-0.6L156.8,92.8z"/>
	<path class="st1" d="M163.9,102.5v-1.2c-0.6,0.3-1,0.5-1.4,0.6c-0.4,0.2-0.8,0.3-1.1,0.4c-0.3,0.1-0.6,0.2-0.8,0.2
		c-0.2,0-0.5,0.1-0.7,0.1c-1,0-1.8-0.3-2.4-0.8c-0.6-0.5-0.9-1.3-0.9-2.3c0-0.2,0-0.3,0-0.5c0-0.2,0.1-0.4,0.1-0.6l0.7-3.6
		c0.3-1.4,0.8-2.4,1.5-3.1c0.7-0.7,1.8-1.1,3.1-1.1c0.2,0,0.4,0,0.7,0c0.2,0,0.5,0.1,0.8,0.2c0.3,0.1,0.6,0.2,1,0.4
		c0.4,0.2,0.8,0.4,1.2,0.6l0.5-1.1h1.8l-2.3,11.8H163.9z M165.3,93.7c-0.5-0.4-1-0.7-1.5-0.9c-0.6-0.2-1.1-0.3-1.7-0.3
		c-0.6,0-1.2,0.2-1.7,0.6c-0.5,0.4-0.8,1-1,1.9l-0.6,3.1c0,0.2-0.1,0.3-0.1,0.4c0,0.1,0,0.3,0,0.4c0,0.6,0.2,1,0.5,1.3
		c0.3,0.3,0.7,0.4,1.2,0.4c0.5,0,1.1-0.1,1.8-0.4c0.7-0.3,1.4-0.6,2.1-1L165.3,93.7z"/>
	<path class="st1" d="M174.4,90.5c0.9,0,1.7,0.1,2.4,0.3c0.7,0.2,1.3,0.5,1.9,1l-1.2,1.5c-0.5-0.4-1-0.6-1.5-0.7
		c-0.5-0.1-1.1-0.2-1.7-0.2c-0.8,0-1.5,0.2-1.9,0.5c-0.5,0.4-0.7,0.8-0.7,1.3c0,0.2,0.1,0.4,0.2,0.6c0.1,0.2,0.3,0.3,0.5,0.4
		c0.2,0.1,0.4,0.2,0.7,0.3c0.3,0.1,0.5,0.1,0.7,0.2c0.4,0.1,0.8,0.2,1.2,0.3c0.5,0.1,0.9,0.3,1.3,0.5c0.4,0.2,0.7,0.5,1,0.9
		c0.3,0.4,0.4,0.8,0.4,1.4c0,0.7-0.1,1.2-0.4,1.7c-0.3,0.5-0.6,0.9-1.1,1.3c-0.5,0.3-1,0.6-1.6,0.8c-0.6,0.2-1.3,0.2-2,0.2
		c-0.8,0-1.6-0.1-2.4-0.3c-0.8-0.2-1.5-0.6-2.2-1.2l1.3-1.5c0.5,0.5,1.1,0.8,1.6,1c0.6,0.2,1.2,0.3,2,0.3c0.3,0,0.6,0,0.9-0.1
		c0.3-0.1,0.6-0.2,0.9-0.3c0.3-0.2,0.5-0.4,0.7-0.6c0.2-0.3,0.3-0.6,0.3-0.9c0-0.4-0.1-0.7-0.4-0.9c-0.3-0.2-0.7-0.4-1.2-0.5
		c-0.4-0.1-0.9-0.2-1.4-0.3c-0.5-0.1-1-0.2-1.4-0.5c-0.5-0.2-0.8-0.5-1.1-0.9c-0.3-0.4-0.5-0.8-0.5-1.5c0-0.6,0.1-1.2,0.4-1.7
		c0.3-0.5,0.7-0.9,1.1-1.2c0.5-0.3,1-0.6,1.5-0.7C173.2,90.6,173.8,90.5,174.4,90.5z"/>
	<path class="st1" d="M193.4,85.9c0.9,0,1.8,0.1,2.6,0.4c0.8,0.3,1.6,0.7,2.2,1.2l-1.4,1.7c-0.2-0.2-0.4-0.3-0.7-0.5
		c-0.3-0.2-0.6-0.3-0.9-0.4c-0.3-0.1-0.6-0.2-1-0.3c-0.3-0.1-0.7-0.1-1-0.1c-1.1,0-2,0.3-2.7,0.9c-0.7,0.6-1.2,1.6-1.5,3l-1,5
		c0,0.2-0.1,0.3-0.1,0.5c0,0.2,0,0.3,0,0.5c0,0.5,0.1,0.9,0.3,1.3c0.2,0.4,0.4,0.7,0.7,0.9c0.3,0.2,0.7,0.4,1.1,0.5
		c0.4,0.1,0.9,0.2,1.3,0.2c0.6,0,1.3-0.1,2-0.3c0.7-0.2,1.4-0.5,2-0.9l0.9,1.8c-0.3,0.2-0.6,0.4-1,0.6c-0.4,0.2-0.8,0.3-1.3,0.5
		c-0.5,0.1-0.9,0.2-1.4,0.3c-0.5,0.1-1,0.1-1.4,0.1c-0.7,0-1.4-0.1-2.1-0.3c-0.7-0.2-1.2-0.5-1.7-0.9c-0.5-0.4-0.9-0.9-1.2-1.4
		c-0.3-0.6-0.4-1.2-0.4-1.9c0-0.2,0-0.4,0-0.5c0-0.2,0.1-0.4,0.1-0.6l1.1-5.7c0.3-1.7,1-3,2-3.9C190,86.4,191.5,85.9,193.4,85.9z"/>
	<path class="st1" d="M202.4,90.6l-1.6,8.3c0,0.2-0.1,0.3-0.1,0.5c0,0.1,0,0.2,0,0.4c0,0.4,0.1,0.6,0.2,0.7c0.2,0.1,0.5,0.2,0.9,0.3
		l-0.4,1.8h-0.3c-0.9,0-1.6-0.2-2-0.5c-0.4-0.3-0.7-0.9-0.7-1.7c0-0.1,0-0.3,0.1-0.5c0-0.2,0.1-0.4,0.1-0.6l1.7-8.7H202.4z
		 M203.2,87.1c-0.1,0.3-0.3,0.6-0.5,0.9c-0.3,0.2-0.6,0.4-0.9,0.4c-0.3,0-0.5-0.1-0.7-0.3c-0.2-0.2-0.3-0.4-0.3-0.7
		c0-0.4,0.1-0.7,0.4-1c0.3-0.3,0.6-0.4,1-0.4c0.3,0,0.5,0.1,0.7,0.3c0.2,0.2,0.3,0.4,0.3,0.7C203.3,87,203.2,87,203.2,87.1z"/>
	<path class="st1" d="M211.3,94.1c0.4-0.6,0.6-1.2,0.8-1.6c0.2-0.4,0.3-0.9,0.3-1.4v-0.5h2v0.5c0,0.7-0.1,1.3-0.3,1.8
		c-0.2,0.5-0.5,1-0.8,1.6l-4.7,8h-1.9l-2-11.8h2.2l0.7,5l0.5,4.2h0.1L211.3,94.1z"/>
	<path class="st1" d="M219.3,90.6l-1.6,8.3c0,0.2-0.1,0.3-0.1,0.5c0,0.1,0,0.2,0,0.4c0,0.4,0.1,0.6,0.2,0.7c0.2,0.1,0.5,0.2,0.9,0.3
		l-0.4,1.8h-0.3c-0.9,0-1.6-0.2-2-0.5c-0.4-0.3-0.7-0.9-0.7-1.7c0-0.1,0-0.3,0.1-0.5c0-0.2,0.1-0.4,0.1-0.6l1.7-8.7H219.3z
		 M220.2,87.1c-0.1,0.3-0.3,0.6-0.5,0.9c-0.3,0.2-0.6,0.4-0.9,0.4c-0.3,0-0.5-0.1-0.7-0.3c-0.2-0.2-0.3-0.4-0.3-0.7
		c0-0.4,0.1-0.7,0.4-1c0.3-0.3,0.6-0.4,1-0.4c0.3,0,0.5,0.1,0.7,0.3c0.2,0.2,0.3,0.4,0.3,0.7C220.2,87,220.2,87,220.2,87.1z"/>
	<path class="st1" d="M223.8,102.6c-1,0-1.6-0.2-2.1-0.5c-0.4-0.4-0.6-0.9-0.6-1.6c0-0.3,0-0.6,0.1-0.9l2.7-14.2h2l-2.6,14
		c0,0.2-0.1,0.4-0.1,0.5c0,0.4,0.1,0.6,0.3,0.7c0.2,0.1,0.6,0.2,1.3,0.2l-0.3,1.9H223.8z"/>
	<path class="st1" d="M232.6,90.5c1.2,0,2.2,0.3,2.9,0.9c0.7,0.6,1.1,1.4,1.1,2.4c0,0.5-0.1,1-0.3,1.5c-0.2,0.5-0.5,0.9-1,1.3
		c-0.5,0.4-1.2,0.7-2.1,0.9c-0.9,0.2-2,0.3-3.5,0.3c-0.2,0-0.3,0-0.5,0s-0.3,0-0.5,0c-0.1,0.3-0.1,0.6-0.1,0.9
		c0,0.6,0.2,1.1,0.6,1.5c0.4,0.4,1,0.6,1.8,0.6c0.5,0,0.9-0.1,1.4-0.3c0.5-0.2,0.9-0.5,1.2-0.9l1.4,1.5c-0.6,0.5-1.2,0.9-1.9,1.2
		c-0.7,0.2-1.4,0.3-2.2,0.3c-1.4,0-2.5-0.4-3.2-1.1c-0.8-0.7-1.1-1.6-1.1-2.8c0-0.5,0.1-1.2,0.2-1.9c0.1-0.7,0.3-1.5,0.5-2.2
		c0.4-1.3,1-2.3,1.9-3.1C230.1,90.9,231.2,90.5,232.6,90.5z M232.5,92.4c-1,0-1.8,0.3-2.3,1c-0.5,0.6-0.9,1.5-1.1,2.6
		c0.2,0,0.4,0,0.5,0c0.2,0,0.4,0,0.5,0c1,0,1.7-0.1,2.3-0.2c0.6-0.1,1-0.3,1.3-0.5c0.3-0.2,0.5-0.4,0.6-0.7c0.1-0.2,0.2-0.5,0.2-0.7
		c0-0.5-0.2-0.9-0.5-1.2C233.7,92.5,233.2,92.4,232.5,92.4z"/>
	<path class="st1" d="M243.6,90.5c0.9,0,1.7,0.1,2.4,0.3c0.7,0.2,1.3,0.5,1.9,1l-1.2,1.5c-0.5-0.4-1-0.6-1.5-0.7
		c-0.5-0.1-1.1-0.2-1.7-0.2c-0.8,0-1.5,0.2-1.9,0.5c-0.5,0.4-0.7,0.8-0.7,1.3c0,0.2,0.1,0.4,0.2,0.6c0.1,0.2,0.3,0.3,0.5,0.4
		c0.2,0.1,0.4,0.2,0.7,0.3c0.3,0.1,0.5,0.1,0.7,0.2c0.4,0.1,0.8,0.2,1.2,0.3c0.5,0.1,0.9,0.3,1.3,0.5c0.4,0.2,0.7,0.5,1,0.9
		c0.3,0.4,0.4,0.8,0.4,1.4c0,0.7-0.1,1.2-0.4,1.7c-0.3,0.5-0.6,0.9-1.1,1.3c-0.5,0.3-1,0.6-1.6,0.8c-0.6,0.2-1.3,0.2-2,0.2
		c-0.8,0-1.6-0.1-2.4-0.3c-0.8-0.2-1.5-0.6-2.2-1.2l1.3-1.5c0.5,0.5,1.1,0.8,1.6,1c0.6,0.2,1.2,0.3,2,0.3c0.3,0,0.6,0,0.9-0.1
		c0.3-0.1,0.6-0.2,0.9-0.3c0.3-0.2,0.5-0.4,0.7-0.6c0.2-0.3,0.3-0.6,0.3-0.9c0-0.4-0.1-0.7-0.4-0.9c-0.3-0.2-0.7-0.4-1.2-0.5
		c-0.4-0.1-0.9-0.2-1.4-0.3c-0.5-0.1-1-0.2-1.4-0.5c-0.5-0.2-0.8-0.5-1.1-0.9c-0.3-0.4-0.5-0.8-0.5-1.5c0-0.6,0.1-1.2,0.4-1.7
		c0.3-0.5,0.7-0.9,1.1-1.2c0.5-0.3,1-0.6,1.5-0.7C242.5,90.6,243.1,90.5,243.6,90.5z"/>
</g>
</svg>
