<?xml version="1.0" encoding="utf-8"?>
<!-- Generator: Adobe Illustrator 25.0.0, SVG Export Plug-In . SVG Version: 6.00 Build 0)  -->
<svg version="1.1" id="Layer_1" xmlns="http://www.w3.org/2000/svg" xmlns:xlink="http://www.w3.org/1999/xlink" x="0px" y="0px"
	 viewBox="0 0 226.3 88.3" style="enable-background:new 0 0 226.3 88.3;" xml:space="preserve">
<style type="text/css">
	.st0{fill:#F5A800;}
	.st1{fill:#4D4D4F;}
	.st2{fill:#292828;}
	.st3{fill:#FFC629;}
	.st4{fill:#FFFFFF;}
	.st5{fill:none;stroke:#D1D1D1;stroke-miterlimit:10;}
	.st6{fill:none;stroke:#D1D1D1;stroke-width:3;stroke-linecap:round;stroke-linejoin:round;stroke-miterlimit:10;}
	.st7{fill:none;stroke:#292828;stroke-width:2;stroke-miterlimit:10;}
	.st8{opacity:0.5;}
	.st9{fill:#F0BC5E;}
</style>
<g>
	<defs>
		<rect id="SVGID_1_" x="-421.5" y="-2103.1" width="1961.2" height="668.7"/>
	</defs>
	<clipPath id="SVGID_2_">
		<use xlink:href="#SVGID_1_"  style="overflow:visible;"/>
	</clipPath>
	<g transform="matrix(1 0 0 1 0 -2.441406e-04)" style="clip-path:url(#SVGID_2_);">
		
			<image style="overflow:visible;" width="3840" height="2160" xlink:href="B3558AFEB6870DFB.jpg"  transform="matrix(1.562195e-08 1.31 -1.31 1.562195e-08 2378.0247 -4012.5122)">
		</image>
	</g>
</g>
<g>
	<defs>
		<rect id="SVGID_41_" x="-2709.2" y="-2103.1" width="1961.2" height="668.7"/>
	</defs>
	<clipPath id="SVGID_4_">
		<use xlink:href="#SVGID_41_"  style="overflow:visible;"/>
	</clipPath>
	<g transform="matrix(1 0 0 1 -7.629395e-06 -2.441406e-04)" style="clip-path:url(#SVGID_4_);">
		
			<image style="overflow:visible;" width="3840" height="2160" xlink:href="B3558AFEB6870DF9.jpg"  transform="matrix(1.562195e-08 1.31 -1.31 1.562195e-08 90.2855 -4012.5122)">
		</image>
	</g>
</g>
<g>
	<g>
		<path class="st3" d="M75.5,46.8c-0.3,0-0.7,0.1-1,0.3c-0.3,0.1-0.6,0.3-0.8,0.6c-0.2,0.3-0.4,0.6-0.5,1.1c-0.1,0.6,0,1.1,0.4,1.5
			c0.4,0.3,1,0.5,1.7,0.5c0.4,0,0.8-0.1,1.2-0.2c0.4-0.1,0.8-0.2,1.2-0.4c0.4-0.1,0.8-0.3,1.2-0.5c0.4-0.2,0.7-0.3,1-0.5l0.4-2.5h-4
			C76.2,46.7,75.9,46.8,75.5,46.8z"/>
		<path class="st3" d="M80.6,40.9c-0.5-0.4-1.3-0.6-2.5-0.6c-0.6,0-1.3,0.1-2.1,0.3c-0.8,0.2-1.7,0.6-2.7,1.3l-1.2-2.6
			c1.2-0.8,2.5-1.4,3.6-1.7c1.1-0.2,2.1-0.4,3-0.4L51.3,9.7c-2.7-2.7-7.1-2.7-9.8,0L11,40.1c-2.7,2.7-2.7,7.1,0,9.8l30.5,30.5
			c2.7,2.7,7.1,2.7,9.8,0l27.9-27.9c-1.1,0.6-2.1,0.9-2.8,1.1C75.5,53.9,74.7,54,74,54c-1.6,0-2.9-0.4-3.7-1.3
			c-0.8-0.9-1.1-2.1-0.8-3.7c0.1-0.9,0.5-1.7,1-2.3c0.5-0.6,1.1-1.1,1.7-1.5c0.7-0.4,1.4-0.7,2.1-0.8c0.7-0.2,1.4-0.3,2-0.3h4.6
			l0.2-1C81.2,42,81.1,41.3,80.6,40.9z M48.4,48.9c0.1,0.4,0.3,0.8,0.6,1.1c0.3,0.3,0.6,0.5,1,0.6c0.4,0.1,0.8,0.2,1.2,0.2
			c0.5,0,1-0.1,1.8-0.3c0.7-0.2,1.4-0.6,2-1.1l1.8,2.4c-1,0.9-2.1,1.5-3.1,1.8c-1,0.3-2.1,0.4-3.1,0.4c-0.9,0-1.8-0.1-2.6-0.4
			c-0.8-0.3-1.4-0.7-2-1.2c-0.5-0.5-0.9-1.1-1.1-1.9c-0.2-0.7-0.3-1.6-0.1-2.5l0.8-4.9c0.2-1,0.5-1.8,1-2.6c0.5-0.8,1.1-1.4,1.8-1.9
			c0.7-0.5,1.5-0.9,2.3-1.2c0.8-0.3,1.7-0.4,2.5-0.4c0.5,0,1,0,1.5,0.1c0.5,0.1,1,0.2,1.5,0.3c0.5,0.1,0.9,0.4,1.4,0.6
			c0.4,0.3,0.8,0.7,1.2,1.1l-2.5,2.6c-0.6-0.7-1.3-1.1-1.8-1.3c-0.6-0.2-1.1-0.2-1.5-0.2c-0.4,0-0.8,0.1-1.2,0.2
			c-0.4,0.1-0.8,0.3-1.2,0.6c-0.4,0.3-0.7,0.6-1,1.1c-0.3,0.4-0.5,1-0.6,1.6l-0.6,3.5C48.2,47.9,48.2,48.5,48.4,48.9z M64,53.8h-3.5
			l2.6-16.6h3.5L64,53.8z M67.6,32.5c-0.1,0.6-0.4,1.1-0.8,1.5c-0.5,0.4-1,0.6-1.5,0.6c-0.6,0-1-0.2-1.3-0.6
			c-0.3-0.4-0.4-0.9-0.4-1.5c0.1-0.6,0.4-1.1,0.8-1.5c0.5-0.4,1-0.6,1.5-0.6c0.6,0,1,0.2,1.4,0.6C67.6,31.5,67.7,32,67.6,32.5z"/>
	</g>
	<path class="st4" d="M91.9,49.4c-0.1,0.9,0,1.4,0.3,1.6c0.4,0.2,1,0.3,1.9,0.3l-0.3,2.6c-0.3,0-0.6,0.1-0.9,0.1c-0.3,0-0.5,0-0.8,0
		c-0.8,0-1.4-0.1-1.8-0.3c-0.5-0.2-0.8-0.5-1-0.8c-0.2-0.4-0.4-0.8-0.4-1.3c0-0.5,0-1.1,0.1-1.8l3.1-19.9H95L91.9,49.4z"/>
	<path class="st4" d="M108.1,52.2c-1.4,0.7-2.6,1.2-3.4,1.4c-0.9,0.2-1.6,0.3-2.3,0.3c-1.6,0-2.8-0.4-3.6-1.3
		c-0.8-0.9-1.1-2.1-0.9-3.6c0.1-0.9,0.5-1.7,1-2.3c0.5-0.6,1.1-1.1,1.8-1.5c0.7-0.4,1.4-0.7,2.1-0.8c0.7-0.2,1.4-0.2,1.9-0.2h4.9
		l0.2-1.3c0.2-1.2,0-2-0.6-2.4c-0.6-0.5-1.5-0.7-2.7-0.7c-0.6,0-1.3,0.1-2.2,0.2c-0.9,0.2-1.8,0.6-2.7,1.3l-1.1-2.2
		c1.2-0.8,2.4-1.4,3.5-1.6c1.1-0.2,2.2-0.4,3.1-0.4c2.2,0,3.7,0.5,4.6,1.4c0.9,0.9,1.2,2.4,0.9,4.4l-1.7,11h-2.5L108.1,52.2
		L108.1,52.2z M109.1,46.4h-4.4c-0.4,0-0.7,0-1.2,0.1c-0.4,0.1-0.8,0.2-1.2,0.3c-0.4,0.2-0.7,0.4-1,0.8c-0.3,0.3-0.5,0.8-0.6,1.4
		c-0.1,0.8,0.1,1.4,0.5,1.8c0.5,0.4,1.2,0.6,2,0.6c0.4,0,0.9-0.1,1.3-0.2c0.5-0.1,0.9-0.3,1.4-0.5c0.5-0.2,0.9-0.4,1.3-0.6
		c0.4-0.2,0.8-0.4,1.2-0.6L109.1,46.4z"/>
	<path class="st4" d="M128.3,49.1c-0.1,0.8-0.4,1.5-0.8,2.1c-0.4,0.6-1,1.1-1.6,1.6c-0.6,0.4-1.4,0.8-2.2,1
		c-0.8,0.2-1.7,0.3-2.7,0.3c-1.2,0-2.3-0.1-3.3-0.5c-1-0.3-2.1-0.9-3-1.7l1.9-2.1c0.7,0.7,1.5,1.2,2.3,1.4c0.8,0.3,1.8,0.4,2.8,0.4
		c0.4,0,0.8,0,1.2-0.1c0.4-0.1,0.8-0.3,1.2-0.5c0.4-0.2,0.7-0.5,0.9-0.8c0.3-0.3,0.4-0.7,0.5-1.2c0.1-0.7-0.1-1.2-0.5-1.5
		c-0.5-0.3-1.1-0.5-1.8-0.7c-0.8-0.1-1.6-0.3-2.5-0.5c-0.8-0.2-1.5-0.4-2.1-0.8c-0.6-0.3-1.1-0.8-1.4-1.3c-0.3-0.6-0.4-1.3-0.3-2.2
		c0.1-0.8,0.4-1.4,0.8-2.1c0.4-0.6,0.9-1.1,1.6-1.6c0.6-0.4,1.3-0.8,2.1-1c0.8-0.2,1.6-0.4,2.4-0.4c1.2,0,2.3,0.1,3.3,0.4
		c0.9,0.3,1.8,0.7,2.6,1.4l-1.8,2.1c-0.7-0.5-1.4-0.8-2.1-1c-0.7-0.2-1.5-0.3-2.3-0.3c-1,0-1.8,0.2-2.5,0.7c-0.7,0.5-1.1,1-1.2,1.7
		c-0.1,0.6,0.1,1,0.5,1.3c0.4,0.3,1,0.5,1.7,0.7c0.7,0.2,1.5,0.3,2.3,0.5c0.8,0.1,1.6,0.4,2.3,0.7c0.7,0.3,1.2,0.8,1.6,1.4
		C128.4,47.2,128.5,48,128.3,49.1z"/>
	<path class="st4" d="M141.5,53.8l1.6-10.2c0.1-0.9,0-1.6-0.4-2c-0.4-0.4-0.9-0.6-1.4-0.6c-0.5,0-1.1,0.1-1.8,0.4
		c-0.7,0.2-1.4,0.6-2.4,1.1l-1.8,11.2h-4.2l3.8-23.9h4.3l-1.4,8.9c1.3-0.8,2.4-1.2,3.3-1.4c0.9-0.2,1.6-0.3,2.2-0.3
		c1.9,0,3.1,0.6,3.8,1.7c0.6,1.1,0.8,2.6,0.5,4.4l-1.7,10.7H141.5z"/>
	<path class="st4" d="M155.1,46.8l-0.1,0.5c-0.1,0.5-0.1,0.9,0,1.3c0.1,0.4,0.3,0.6,0.5,0.9c0.2,0.2,0.5,0.4,0.9,0.5
		c0.3,0.1,0.7,0.2,1.1,0.2c0.5,0,1.1-0.1,1.8-0.2c0.7-0.1,1.5-0.5,2.4-1.2l1.9,2.9c-0.6,0.5-1.2,0.9-1.7,1.2
		c-0.6,0.3-1.1,0.5-1.7,0.7c-0.5,0.2-1.1,0.3-1.6,0.3c-0.5,0.1-1.1,0.1-1.6,0.1c-1,0-1.9-0.1-2.7-0.4c-0.8-0.2-1.6-0.6-2.1-1.1
		c-0.6-0.5-1-1.1-1.3-1.9c-0.3-0.8-0.3-1.7-0.2-2.7l0.7-4.3c0.2-1,0.5-1.9,1-2.8c0.5-0.8,1.1-1.5,1.9-2.1c0.7-0.6,1.6-1,2.4-1.3
		c0.9-0.3,1.8-0.4,2.8-0.4c1,0,1.9,0.1,2.8,0.4c0.8,0.3,1.5,0.7,2,1.3c0.5,0.6,0.9,1.2,1.2,2c0.2,0.8,0.3,1.7,0.1,2.7l-0.5,3.2
		H155.1z M161.3,43.7c0.1-0.9,0-1.6-0.5-2c-0.5-0.4-1.1-0.6-1.9-0.6c-0.8,0-1.5,0.2-2.1,0.7c-0.6,0.5-1,1.2-1.2,2.1l0,0.2h5.7
		L161.3,43.7z"/>
	<path class="st4" d="M180.6,41.4c-1.5,0.1-2.7,0.4-3.7,0.7s-1.9,0.7-2.8,1.2l-1.7,10.5h-4.2l2.6-16.6h3.9l-0.1,2.4h0
		c0.3-0.3,0.8-0.6,1.3-0.9c0.5-0.3,1.1-0.6,1.7-0.9c0.6-0.3,1.2-0.5,1.8-0.6c0.6-0.2,1.2-0.3,1.8-0.3L180.6,41.4z"/>
	<path class="st4" d="M191.8,52.5c-1.1,0.6-2.1,1-2.9,1.2c-0.8,0.2-1.6,0.3-2.3,0.3c-1.7,0-2.9-0.5-3.7-1.4
		c-0.8-0.9-1.1-2.1-0.8-3.7c0.1-0.9,0.5-1.7,0.9-2.3c0.5-0.6,1-1.2,1.7-1.6c0.7-0.4,1.4-0.7,2.1-0.9c0.7-0.2,1.4-0.3,2.1-0.3h4.3
		l0.1-0.7c0.1-0.8,0-1.4-0.4-1.8c-0.4-0.4-1.1-0.6-2.3-0.6c-0.5,0-1.2,0.1-2,0.2c-0.8,0.2-1.7,0.6-2.6,1.2l-1.4-3.1
		c1.3-0.9,2.6-1.5,3.8-1.7c1.2-0.3,2.3-0.4,3.3-0.4c2.4,0,4,0.5,4.9,1.6c0.9,1.1,1.2,2.7,0.9,4.9l-1.6,10.3H192L191.8,52.5
		L191.8,52.5z M192.7,47.1h-3.5c-0.3,0-0.5,0-0.8,0.1c-0.3,0-0.5,0.1-0.7,0.2c-0.2,0.1-0.4,0.3-0.6,0.5c-0.2,0.2-0.3,0.5-0.3,0.8
		c-0.1,0.4,0,0.8,0.3,1.1c0.3,0.3,0.7,0.4,1.4,0.4c0.7,0,1.4-0.1,2.2-0.4c0.7-0.3,1.3-0.5,1.8-0.8L192.7,47.1z"/>
	<path class="st4" d="M206.4,54c-0.6,0-1.2,0-1.8-0.1c-0.6-0.1-1.2-0.2-1.8-0.3c-0.6-0.2-1.2-0.4-1.7-0.7c-0.6-0.3-1.1-0.7-1.7-1.3
		l2.8-3c0.7,0.7,1.5,1.2,2.3,1.4c0.8,0.3,1.6,0.4,2.4,0.4c0.8,0,1.4-0.1,1.9-0.4c0.5-0.3,0.8-0.7,0.9-1.2c0.1-0.4,0-0.7-0.3-1
		c-0.3-0.2-0.8-0.4-1.5-0.6c-0.7-0.1-1.5-0.3-2.3-0.5c-0.8-0.2-1.5-0.4-2.1-0.8c-0.6-0.3-1.1-0.8-1.4-1.4c-0.3-0.6-0.4-1.4-0.3-2.3
		c0.1-0.9,0.4-1.6,0.9-2.3c0.5-0.7,1-1.2,1.7-1.6c0.6-0.4,1.4-0.8,2.1-1c0.8-0.2,1.6-0.3,2.4-0.3c1.3,0,2.5,0.1,3.5,0.4
		c1,0.2,2,0.8,2.9,1.6l-2.5,3.2c-0.8-0.6-1.5-1-2.3-1.1c-0.8-0.2-1.5-0.3-2.2-0.3c-0.7,0-1.3,0.1-1.7,0.4c-0.4,0.3-0.6,0.6-0.7,1
		c-0.1,0.4,0.1,0.7,0.5,0.9c0.4,0.2,1,0.3,1.6,0.5c0.7,0.1,1.4,0.3,2.1,0.4c0.8,0.2,1.4,0.4,2.1,0.8c0.6,0.3,1.1,0.8,1.5,1.4
		c0.3,0.6,0.4,1.4,0.3,2.5c-0.1,0.9-0.4,1.6-0.9,2.3c-0.5,0.6-1.1,1.2-1.8,1.6c-0.7,0.4-1.5,0.8-2.4,1C208.2,53.9,207.3,54,206.4,54
		z"/>
	<path class="st4" d="M96.1,71.8c-0.2,1.2-0.8,2.2-1.6,2.9c-0.8,0.7-2,1.1-3.4,1.1c-0.5,0-1.1-0.1-1.5-0.3c-0.5-0.2-0.9-0.4-1.3-0.7
		c-0.4-0.3-0.7-0.7-0.9-1.2c-0.2-0.5-0.3-1-0.3-1.6c0-0.3,0-0.7,0.1-1l0.7-3.8c0.2-1.2,0.8-2.2,1.5-2.9c0.8-0.7,1.9-1.1,3.4-1.1
		c0.6,0,1.2,0.1,1.7,0.3c0.5,0.2,0.9,0.4,1.3,0.8c0.4,0.3,0.6,0.7,0.8,1.2c0.2,0.4,0.3,0.9,0.3,1.5c0,0.3,0,0.5-0.1,0.8L96.1,71.8z
		 M95.2,67.8c0-0.1,0-0.2,0.1-0.3c0-0.1,0-0.2,0-0.3c0-0.4-0.1-0.7-0.2-1c-0.1-0.3-0.3-0.6-0.6-0.8c-0.2-0.2-0.5-0.4-0.8-0.5
		c-0.3-0.1-0.6-0.2-1-0.2c-0.9,0-1.6,0.2-2.1,0.7c-0.6,0.4-0.9,1.2-1.1,2.2l-0.7,3.7c0,0.1,0,0.3-0.1,0.4c0,0.1,0,0.3,0,0.4
		c0,0.4,0.1,0.7,0.2,1c0.1,0.3,0.3,0.5,0.5,0.7c0.2,0.2,0.5,0.3,0.7,0.4c0.3,0.1,0.6,0.1,0.9,0.1c1,0,1.8-0.3,2.4-0.8
		c0.5-0.5,0.9-1.3,1.1-2.3L95.2,67.8z"/>
	<path class="st4" d="M105,72.4c-0.2,1.2-0.7,2.1-1.4,2.6c-0.7,0.5-1.6,0.8-2.7,0.8c-0.2,0-0.4,0-0.7-0.1c-0.3,0-0.6-0.1-1-0.2
		c-0.3-0.1-0.7-0.2-1.1-0.3c-0.4-0.1-0.7-0.3-1-0.5l2.3-11.9h1.5l-0.9,4.9c0.7-0.4,1.3-0.7,1.8-0.8c0.5-0.1,0.9-0.2,1.2-0.2
		c0.8,0,1.4,0.2,1.8,0.6c0.4,0.4,0.6,0.9,0.6,1.7c0,0.1,0,0.3,0,0.4c0,0.2,0,0.3-0.1,0.5L105,72.4z M103.9,70c0-0.2,0.1-0.4,0.1-0.6
		c0-0.5-0.1-0.8-0.4-1c-0.2-0.2-0.5-0.3-0.9-0.3c-0.4,0-0.8,0.1-1.3,0.3c-0.5,0.2-1,0.5-1.5,0.8l-0.9,4.5c0.4,0.2,0.8,0.3,1.1,0.4
		c0.4,0.1,0.7,0.1,1.1,0.1c0.7,0,1.2-0.2,1.6-0.5c0.4-0.4,0.6-0.9,0.8-1.6L103.9,70z"/>
	<path class="st4" d="M112.2,68.4c-0.8,0.1-1.5,0.3-2,0.4c-0.5,0.2-1,0.3-1.3,0.5l-1.2,6.3h-1.5l1.7-8.8h1.3l0,1.2h0
		c0.4-0.3,0.9-0.6,1.4-0.9c0.6-0.3,1.2-0.4,1.8-0.5L112.2,68.4z"/>
	<path class="st4" d="M117.6,75.7v-0.9c-0.4,0.2-0.8,0.3-1.1,0.5c-0.3,0.1-0.6,0.2-0.8,0.3c-0.2,0.1-0.4,0.1-0.6,0.2
		c-0.2,0-0.3,0-0.5,0c-0.7,0-1.3-0.2-1.8-0.6c-0.4-0.4-0.7-1-0.7-1.7c0-0.1,0-0.3,0-0.4c0-0.1,0-0.3,0.1-0.4l0.5-2.7
		c0.2-1,0.6-1.8,1.1-2.3c0.5-0.5,1.3-0.8,2.3-0.8c0.2,0,0.3,0,0.5,0c0.2,0,0.4,0.1,0.6,0.1c0.2,0.1,0.5,0.2,0.7,0.3
		c0.3,0.1,0.6,0.3,0.9,0.5l0.4-0.8h1.3l-1.7,8.8H117.6z M118.6,69.1c-0.3-0.3-0.7-0.5-1.2-0.6c-0.4-0.2-0.9-0.2-1.3-0.2
		c-0.5,0-0.9,0.1-1.2,0.4c-0.3,0.3-0.6,0.8-0.7,1.4l-0.5,2.3c0,0.1,0,0.2-0.1,0.3c0,0.1,0,0.2,0,0.3c0,0.4,0.1,0.8,0.3,0.9
		c0.2,0.2,0.5,0.3,0.9,0.3c0.4,0,0.8-0.1,1.3-0.3c0.5-0.2,1-0.4,1.6-0.7L118.6,69.1z"/>
	<path class="st4" d="M125.4,66.7c0.7,0,1.3,0.1,1.8,0.2c0.5,0.1,1,0.4,1.4,0.7l-0.9,1.1c-0.4-0.3-0.7-0.4-1.1-0.6
		c-0.4-0.1-0.8-0.2-1.2-0.2c-0.6,0-1.1,0.1-1.4,0.4c-0.4,0.3-0.5,0.6-0.5,1c0,0.2,0,0.3,0.1,0.4c0.1,0.1,0.2,0.2,0.4,0.3
		c0.1,0.1,0.3,0.1,0.5,0.2c0.2,0,0.4,0.1,0.5,0.1c0.3,0,0.6,0.1,0.9,0.2c0.3,0.1,0.7,0.2,1,0.4c0.3,0.2,0.5,0.4,0.7,0.7
		c0.2,0.3,0.3,0.6,0.3,1.1c0,0.5-0.1,0.9-0.3,1.3c-0.2,0.4-0.5,0.7-0.8,0.9c-0.3,0.3-0.7,0.4-1.2,0.6c-0.5,0.1-1,0.2-1.5,0.2
		c-0.6,0-1.2-0.1-1.8-0.2c-0.6-0.2-1.1-0.5-1.6-0.9l0.9-1.1c0.4,0.4,0.8,0.6,1.2,0.8c0.4,0.1,0.9,0.2,1.5,0.2c0.2,0,0.5,0,0.7-0.1
		c0.2-0.1,0.5-0.1,0.7-0.3c0.2-0.1,0.4-0.3,0.5-0.5c0.1-0.2,0.2-0.4,0.2-0.7c0-0.3-0.1-0.6-0.3-0.7c-0.2-0.1-0.5-0.3-0.9-0.3
		c-0.3-0.1-0.7-0.1-1-0.2c-0.4-0.1-0.7-0.2-1.1-0.3c-0.3-0.2-0.6-0.4-0.8-0.6c-0.2-0.3-0.3-0.6-0.3-1.1c0-0.5,0.1-0.9,0.3-1.3
		c0.2-0.4,0.5-0.7,0.8-0.9c0.3-0.2,0.7-0.4,1.1-0.5C124.5,66.8,124.9,66.7,125.4,66.7z"/>
	<path class="st4" d="M139.6,63.2c0.7,0,1.3,0.1,2,0.3c0.6,0.2,1.2,0.5,1.6,0.9l-1.1,1.3c-0.1-0.1-0.3-0.3-0.5-0.4
		c-0.2-0.1-0.4-0.2-0.7-0.3c-0.2-0.1-0.5-0.2-0.7-0.2c-0.3,0-0.5-0.1-0.7-0.1c-0.8,0-1.5,0.2-2,0.7c-0.5,0.4-0.9,1.2-1.1,2.2
		l-0.8,3.7c0,0.1,0,0.3-0.1,0.4c0,0.1,0,0.2,0,0.3c0,0.4,0.1,0.7,0.2,1c0.1,0.3,0.3,0.5,0.5,0.7c0.2,0.2,0.5,0.3,0.8,0.4
		c0.3,0.1,0.6,0.1,1,0.1c0.5,0,1-0.1,1.5-0.2c0.6-0.2,1-0.4,1.5-0.7l0.7,1.4c-0.2,0.2-0.5,0.3-0.7,0.4c-0.3,0.1-0.6,0.2-0.9,0.3
		c-0.3,0.1-0.7,0.2-1.1,0.2c-0.4,0.1-0.7,0.1-1.1,0.1c-0.5,0-1.1-0.1-1.6-0.2c-0.5-0.2-0.9-0.4-1.3-0.7c-0.4-0.3-0.7-0.6-0.9-1.1
		c-0.2-0.4-0.3-0.9-0.3-1.4c0-0.1,0-0.3,0-0.4c0-0.1,0-0.3,0.1-0.4l0.8-4.3c0.2-1.2,0.7-2.2,1.5-2.9C137,63.6,138.1,63.2,139.6,63.2
		z"/>
	<path class="st4" d="M146.3,66.8l-1.2,6.2c0,0.1,0,0.2-0.1,0.3c0,0.1,0,0.2,0,0.3c0,0.3,0.1,0.5,0.2,0.6c0.1,0.1,0.3,0.1,0.7,0.2
		l-0.3,1.4h-0.2c-0.7,0-1.2-0.1-1.5-0.4c-0.3-0.3-0.5-0.7-0.5-1.3c0-0.1,0-0.2,0-0.4c0-0.1,0.1-0.3,0.1-0.4l1.3-6.5H146.3z
		 M146.9,64.1c-0.1,0.3-0.2,0.5-0.4,0.6c-0.2,0.2-0.4,0.3-0.7,0.3c-0.2,0-0.4-0.1-0.5-0.2c-0.1-0.1-0.2-0.3-0.2-0.5
		c0-0.3,0.1-0.5,0.3-0.7c0.2-0.2,0.5-0.3,0.7-0.3c0.2,0,0.4,0.1,0.6,0.2c0.1,0.1,0.2,0.3,0.2,0.5C146.9,64,146.9,64.1,146.9,64.1z"
		/>
	<path class="st4" d="M152.9,69.4c0.3-0.5,0.5-0.9,0.6-1.2c0.1-0.3,0.2-0.7,0.2-1v-0.4h1.5v0.3c0,0.5-0.1,1-0.2,1.4
		c-0.1,0.4-0.3,0.8-0.6,1.2l-3.5,5.9h-1.4l-1.5-8.8h1.6l0.5,3.7l0.4,3.1h0.1L152.9,69.4z"/>
	<path class="st4" d="M158.9,66.8l-1.2,6.2c0,0.1,0,0.2-0.1,0.3c0,0.1,0,0.2,0,0.3c0,0.3,0.1,0.5,0.2,0.6c0.1,0.1,0.3,0.1,0.7,0.2
		l-0.3,1.4H158c-0.7,0-1.2-0.1-1.5-0.4c-0.3-0.3-0.5-0.7-0.5-1.3c0-0.1,0-0.2,0-0.4c0-0.1,0.1-0.3,0.1-0.4l1.2-6.5H158.9z
		 M159.5,64.1c-0.1,0.3-0.2,0.5-0.4,0.6c-0.2,0.2-0.4,0.3-0.7,0.3c-0.2,0-0.4-0.1-0.5-0.2c-0.1-0.1-0.2-0.3-0.2-0.5
		c0-0.3,0.1-0.5,0.3-0.7c0.2-0.2,0.5-0.3,0.7-0.3c0.2,0,0.4,0.1,0.6,0.2c0.1,0.1,0.2,0.3,0.2,0.5C159.6,64,159.6,64.1,159.5,64.1z"
		/>
	<path class="st4" d="M162.2,75.7c-0.7,0-1.2-0.1-1.6-0.4c-0.3-0.3-0.5-0.6-0.5-1.2c0-0.2,0-0.5,0.1-0.7l2-10.6h1.5l-2,10.4
		c0,0.1-0.1,0.3-0.1,0.4c0,0.3,0.1,0.4,0.3,0.5c0.2,0.1,0.5,0.1,0.9,0.1l-0.2,1.4H162.2z"/>
	<path class="st4" d="M168.8,66.7c0.9,0,1.6,0.2,2.2,0.6c0.5,0.4,0.8,1,0.8,1.8c0,0.4-0.1,0.7-0.2,1.1c-0.1,0.4-0.4,0.7-0.8,1
		c-0.4,0.3-0.9,0.5-1.6,0.7c-0.7,0.2-1.5,0.3-2.6,0.3c-0.1,0-0.3,0-0.4,0s-0.3,0-0.4,0c-0.1,0.2-0.1,0.5-0.1,0.6
		c0,0.5,0.1,0.8,0.5,1.2c0.3,0.3,0.8,0.5,1.4,0.5c0.3,0,0.7-0.1,1-0.2c0.3-0.1,0.7-0.3,0.9-0.6l1,1.1c-0.4,0.4-0.9,0.7-1.4,0.9
		c-0.5,0.2-1.1,0.3-1.6,0.3c-1,0-1.8-0.3-2.4-0.8c-0.6-0.5-0.8-1.2-0.8-2.1c0-0.4,0-0.9,0.1-1.4c0.1-0.5,0.2-1.1,0.4-1.6
		c0.3-1,0.7-1.7,1.4-2.3C166.9,67,167.8,66.7,168.8,66.7z M168.8,68.1c-0.8,0-1.3,0.2-1.8,0.7c-0.4,0.5-0.7,1.1-0.9,2
		c0.1,0,0.3,0,0.4,0c0.1,0,0.3,0,0.4,0c0.7,0,1.3,0,1.7-0.1c0.4-0.1,0.8-0.2,1-0.4c0.2-0.1,0.4-0.3,0.5-0.5c0.1-0.2,0.1-0.4,0.1-0.5
		c0-0.4-0.1-0.7-0.4-0.9C169.6,68.2,169.3,68.1,168.8,68.1z"/>
	<path class="st4" d="M177,66.7c0.7,0,1.3,0.1,1.8,0.2c0.5,0.1,1,0.4,1.4,0.7l-0.9,1.1c-0.4-0.3-0.7-0.4-1.1-0.6
		c-0.4-0.1-0.8-0.2-1.2-0.2c-0.6,0-1.1,0.1-1.4,0.4c-0.4,0.3-0.5,0.6-0.5,1c0,0.2,0,0.3,0.1,0.4c0.1,0.1,0.2,0.2,0.4,0.3
		c0.1,0.1,0.3,0.1,0.5,0.2c0.2,0,0.4,0.1,0.5,0.1c0.3,0,0.6,0.1,0.9,0.2c0.3,0.1,0.7,0.2,1,0.4c0.3,0.2,0.5,0.4,0.7,0.7
		c0.2,0.3,0.3,0.6,0.3,1.1c0,0.5-0.1,0.9-0.3,1.3c-0.2,0.4-0.5,0.7-0.8,0.9c-0.3,0.3-0.7,0.4-1.2,0.6c-0.5,0.1-1,0.2-1.5,0.2
		c-0.6,0-1.2-0.1-1.8-0.2c-0.6-0.2-1.1-0.5-1.6-0.9l0.9-1.1c0.4,0.4,0.8,0.6,1.2,0.8c0.4,0.1,0.9,0.2,1.5,0.2c0.2,0,0.5,0,0.7-0.1
		c0.2-0.1,0.5-0.1,0.7-0.3c0.2-0.1,0.4-0.3,0.5-0.5c0.1-0.2,0.2-0.4,0.2-0.7c0-0.3-0.1-0.6-0.3-0.7c-0.2-0.1-0.5-0.3-0.9-0.3
		c-0.3-0.1-0.6-0.1-1-0.2c-0.4-0.1-0.7-0.2-1.1-0.3c-0.3-0.2-0.6-0.4-0.8-0.6c-0.2-0.3-0.3-0.6-0.3-1.1c0-0.5,0.1-0.9,0.3-1.3
		c0.2-0.4,0.5-0.7,0.8-0.9c0.3-0.2,0.7-0.4,1.1-0.5C176.2,66.8,176.6,66.7,177,66.7z"/>
</g>
</svg>
